<svg height="180" viewBox="0 0 1027 1027" width="180" xmlns="http://www.w3.org/2000/svg"><g fill="none" transform="translate(252.695395 264.35426)"><path d="m538.797537 475.663684h-538.797537v-452.8059097c0-11.0489241 8.94912861-19.99805275 19.9980528-19.99805275 11.0489241 0 19.9980527 8.94912865 19.9980527 19.99805275v412.8098047h498.8014315c11.048924 0 19.998053 8.949128 19.998053 19.998052 0 11.048925-8.949129 19.998053-19.998053 19.998053z" fill="#FF0087"/><circle cx="205.340006" cy="333.66751" fill="#3a99d4" r="39.996106"/><circle cx="109.089378" cy="333.66751" fill="#2a256a" r="19.998053"/><circle cx="235.927028" cy="174.602999" fill="#3a99d4" r="39.996106"/><circle cx="156.394772" cy="248.01585" fill="#FF0087" r="19.998053"/><g fill="#2a256a"><circle cx="290.991666" cy="303.080489" r="19.998053"/><circle cx="315.459283" cy="107.299552" r="19.998053"/><circle cx="297.11107" cy="235.777042" r="19.998053"/></g><circle cx="422.29888" cy="39.996106" fill="#3a99d4" r="39.996106"/><circle cx="376.643326" cy="174.602999" fill="#FF0087" r="19.998053"/><circle cx="482.293039" cy="119.53836" fill="#FF0087" r="19.998053"/><circle cx="395.001538" cy="113.418956" fill="#2a256a" r="19.998053"/></g></svg>