<svg height="180" viewBox="0 0 1027 1027" width="180" xmlns="http://www.w3.org/2000/svg"><g fill="none" transform="translate(272.86709 267.077654)"><g fill="#FF0087"><path d="m245.072478 182.738547-143.146062-148.8755035c-7.6592541-7.959225-7.4092784-20.6179924.549947-28.27724659 7.959225-7.65925421 20.617992-7.40927855 28.277246.54994646l114.318869 118.88842363 114.318869-118.88842363c7.649255-7.95922501 20.318021-8.20920067 28.277246-.54994646 7.959225 7.65925419 8.209201 20.31802159.549947 28.27724659z"/><path d="m373.809943 485.199096c-5.249489 0-10.488979-2.0498-14.418596-6.139402l-114.318869-118.888423-114.318869 118.888423c-7.659254 7.959225-20.318021 8.209201-28.277246.549947-7.9592254-7.659254-8.2092011-20.318022-.549947-28.277247l143.146062-148.875504 143.146062 148.875504c7.659254 7.959225 7.409278 20.617993-.549947 28.277247-3.879622 3.729637-8.869136 5.579456-13.85865 5.579456z"/><path d="m20.004393 390.968272c-5.2494889 0-10.48897872-2.049801-14.41859609-6.139402-7.65925421-7.959225-7.40927855-20.617993.54994646-28.277247l118.88842363-114.318869-118.88842363-114.318868c-7.95922501-7.659255-8.20920067-20.318022-.54994646-28.2772469 7.64925519-7.959225 20.31802159-8.2092007 28.27724659-.5499465l148.8755035 143.1460614-148.8755035 143.146062c-3.8796222 3.729637-8.8691364 5.579457-13.8586505 5.579457z"/><path d="m462.691288 390.968272c-4.989514 0-9.979028-1.84982-13.85865-5.579457l-148.875504-143.146062 148.875504-143.1460613c7.959225-7.6592542 20.617992-7.4092786 28.277246.5499464 7.659254 7.9592249 7.409279 20.6179929-.549946 28.2772469l-118.888424 114.318868 118.888424 114.318869c7.959225 7.659254 8.2092 20.318022.549946 28.277247-3.929617 4.079602-9.169107 6.139402-14.418596 6.139402z"/></g><circle cx="241.892787" cy="240.292943" fill="#3a99d4" r="39.996106"/><circle cx="241.892787" cy="240.292943" fill="#2a256a" r="19.998053"/></g></svg>