<svg height="180" viewBox="0 0 1027 1027" width="180" xmlns="http://www.w3.org/2000/svg"><g fill="none" transform="translate(104.049869 333.357541)"><path d="m743.987557 309.589855c-.179982-.029997-16.278415-2.939714-36.506445-10.698958v-246.3560124c18.968153-7.0093175 34.076682-9.8290429 34.416649-9.8890371 10.87894-1.9298121 18.128235-12.3088014 16.208421-23.1777431-1.929812-10.87894074-12.298802-18.12823486-23.177743-16.2084218-4.169594.73992795-102.540015 18.8681628-134.306922 86.2016065-7.489271 15.8684549-14.878551 30.7770029-22.18784 44.7856389-55.594586-86.5815692-110.379252-126.5176806-171.243326-126.92764069-40.76603-.26997371-75.852614 7.85923479-114.728828 48.40528669-18.27822 19.0581443-37.58634 45.175601-60.414118 82.321984-12.378794-22.337825-25.787489-47.5553692-40.476058-76.0225973-32.616825-63.21384484-122.9580279-55.76457018-126.7876551-55.41460426-10.998929.99990264-19.1081394 10.72895536-18.1082367 21.72788436.9999026 10.998929 10.7289553 19.0981404 21.7278843 18.1082368.1599844-.0199981 15.3585045-1.2498783 33.5767305 1.7698276v256.1750558c-17.0583389 2.519755-31.0869729 1.43986-31.5269301 1.399864-10.998929-.969906-20.6879856 7.129306-21.6878882 18.108237-.9999027 10.998929 7.1093077 20.727981 18.1082368 21.727884 3.8296271.349966 94.1808295 7.799241 126.7876545-55.414604 13.908646-26.957375 26.677402-50.995035 38.496252-72.442946 21.86787 35.256567 40.516055 60.304128 58.204332 78.742332 38.266274 39.916114 72.882904 48.415286 112.819015 48.415286h1.909814c61.703992-.40996 117.148593-41.455963 173.543102-130.537289 7.919229 15.038535 15.938448 31.146967 24.067656 48.395287 31.776906 67.333444 130.137329 85.461679 134.306923 86.201607 1.179885.209979 2.349771.30997 3.509658.30997 9.519073 0 17.948252-6.819336 19.668085-16.518392 1.929812-10.878941-5.329481-21.25793-16.208422-23.177743zm-585.882952-37.716328c-3.909619 7.579262-9.569068 13.498686-16.138428 18.118236v-226.1679776c6.039412 4.6495473 10.748953 10.1590108 14.048632 16.5483887 19.568094 37.9263069 36.876409 70.1231719 52.534884 97.5904979-15.108529 26.647405-31.746908 57.674384-50.445088 93.910855zm161.114312-3.049703c-18.4782-19.268123-39.096193-48.195307-64.423727-90.941145 26.287441-44.685649 47.525373-74.682728 66.513524-94.4807999 1.039899-1.0898939 2.079797-2.1397917 3.109697-3.1696914v193.8011293c-1.719832-1.659838-3.449664-3.38967-5.199494-5.219492zm85.601665 36.096486c-14.938545.09999-27.917281-1.0299-40.406065-5.169497v-246.5459936c13.118722-4.7295395 26.707399-5.9894168 42.495862-5.8894265 13.778658.0899912 27.327339 3.2196864 40.796027 9.4590789v237.6868562c-14.158621 6.899328-28.397235 10.358991-42.885824 10.448983zm91.411099-47.795347c-2.849722 2.989709-5.689446 5.829433-8.529169 8.539169v-181.0423717c3.529656 3.2796807 7.069312 6.7693409 10.618966 10.4989777 19.038146 19.998053 38.236277 46.2155 57.92436 79.232285-20.428011 34.676624-40.296077 62.073956-60.014157 82.77194zm142.636112-11.418888c-12.308802-26.087459-24.467618-49.885142-36.546442-71.47304 11.388891-20.577997 22.847776-43.115802 34.456645-67.703408 6.549363-13.8686495 17.858261-25.0075649 30.70701-33.8567032v205.2800112c-11.768854-8.469175-22.417817-19.128137-28.617213-32.24686z" fill="#FF0087"/><circle cx="19.998053" cy="325.5583" fill="#3a99d4" r="19.998053"/><circle cx="792.182864" cy="19.998053" fill="#3a99d4" r="19.998053"/><g fill="#2a256a"><circle cx="739.178026" cy="22.777782" r="19.998053"/><circle cx="68.683312" cy="326.348223" r="19.998053"/></g></g></svg>