<svg height="180" viewBox="0 0 1027 1027" width="180" xmlns="http://www.w3.org/2000/svg"><g fill="none" transform="translate(257.724905 187.061786)"><g fill="#2a256a"><circle cx="85.291695" cy="407.460325" r="19.998053"/><circle cx="150.66533" cy="407.460325" r="19.998053"/><circle cx="216.048963" cy="407.460325" r="19.998053"/><circle cx="281.422598" cy="407.460325" r="19.998053"/><circle cx="346.796232" cy="407.460325" r="19.998053"/><circle cx="412.169867" cy="407.460325" r="19.998053"/></g><circle cx="117.27858" cy="465.484675" fill="#3a99d4" r="19.998053"/><circle cx="182.652215" cy="465.484675" fill="#3a99d4" r="19.998053"/><circle cx="248.025849" cy="465.484675" fill="#3a99d4" r="19.998053"/><circle cx="313.409483" cy="465.484675" fill="#3a99d4" r="19.998053"/><circle cx="378.783118" cy="465.484675" fill="#3a99d4" r="19.998053"/><path d="m461.585055 266.174082h-82.321984l-5.529462-164.633969-91.871054-101.540113h-170.953354v266.174082h-76.9125113c-18.7481745 0-33.9966897 15.248516-33.9966897 33.99669v234.117204c0 18.748174 15.2485152 33.99669 33.9966897 33.99669h427.5883653c18.748174 0 33.99669-15.248516 33.99669-33.99669v-234.117204c0-18.748174-15.248516-33.99669-33.99669-33.99669zm-147.515636-170.9533537h-35.296563v-39.006202zm-163.164113-55.2246228h87.871444v95.2107295h96.060647l4.399571 130.967247h-188.341661v-226.1779765zm304.680333 488.3024535h-415.5895335v-222.118372h415.5895335z" fill="#FF0087"/></g></svg>