<svg height="180" viewBox="0 0 1027 1027" width="180" xmlns="http://www.w3.org/2000/svg"><g fill="none" transform="translate(124.878936 182.27207)"><circle cx="238.145716" cy="556.825964" fill="#3a99d4" r="19.998053"/><path d="m435.766474 470.364383c-83.671853 0-155.964814-13.728664-209.079642-39.716133-62.183945-30.417038-95.690683-76.562545-96.890566-133.447006-1.499854-71.413047 17.088336-127.397596 55.264619-166.3738 46.095512-47.0754166 120.418275-69.963188 227.207877-69.963188 51.594976 0 109.429344 14.4585922 167.253714 41.825927 53.674774 25.397527 103.249946 60.254133 139.606406 98.140444 41.815929 43.565758 63.053861 87.411489 61.434018 126.787655-1.079894 26.337435-13.708665 49.875144-37.536345 69.963188-19.708081 16.618381-47.2354 30.807-81.802034 42.165894-60.08415 19.748077-140.156353 30.617019-225.458047 30.617019zm-23.507711-369.494022c-95.480703 0-160.444378 18.958154-198.63066 57.944357-30.797001 31.446938-45.135605 76.442557-43.855729 137.556606.869915 41.525957 25.927475 74.612735 74.472748 98.360423 47.675358 23.31773 113.89891 35.646529 191.511353 35.646529 77.612442 0 156.804731-10.159011 212.969263-28.617213 29.687109-9.749051 52.734865-21.447912 68.503329-34.746617 15.09853-12.73876 22.737786-26.157453 23.357726-41.036004 1.149888-27.827291-16.728371-62.433921-50.3251-97.450512-33.06678-34.456644-78.482358-66.313543-127.85755-89.681267-52.514887-24.847581-104.429832-37.986301-150.14538-37.986301z" fill="#FF0087"/><path d="m175.101855 579.083796c-50.815052 0-98.5104082-19.318118-132.6470843-54.144727-30.0570733-30.677013-45.36558266-69.003281-41.99591077-105.16976 5.5694577-59.77418 62.59390517-113.238974 135.60679607-127.13762 10.848943-2.069799 21.317924 5.059507 23.387722 15.908451 2.0598 10.848943-5.059507 21.317924-15.90845 23.387722-27.897284 5.309483-53.7847634 18.048243-72.9029019 35.886506-17.7682699 16.578386-28.5472203 36.346461-30.3470451 55.66458-2.2397819 24.077655 9.2490995 51.534982 30.7470062 73.472846 29.1571608 29.747103 71.3830498 44.955622 115.8487198 41.715938 11.008928-.809921 20.597994 7.479272 21.397916 18.498199s-7.479271 20.597994-18.498198 21.397916c-4.909522.359965-9.809045.529949-14.668572.539948z" fill="#FF0087"/><circle cx="188.320568" cy="558.595791" fill="#2a256a" r="19.998053"/><circle cx="623.458198" cy="244.236401" fill="#2a256a" r="19.998053"/><g fill="#FF0087"><path d="m424.737547 276.693241c-7.039314 0-13.85865-3.719638-17.508295-10.318996-15.028536-27.137357-17.838263-58.754279-7.719248-86.761552 8.159205-22.577801 23.567705-39.716132 42.285883-47.015422 18.658183-7.269292 41.535955-5.119501 62.773887 5.899426 26.357434 13.678668 45.725548 38.746227 53.134826 68.783302 2.649742 10.718957-3.89962 21.557901-14.628575 24.207643-10.718957 2.639743-21.557901-3.89962-24.207643-14.628575-4.649547-18.858164-16.578386-34.486642-32.726813-42.865826-10.698959-5.54946-22.127846-7.139305-29.827096-4.129598-7.729248 3.009707-15.088531 11.958835-19.198131 23.337727-6.199396 17.14833-4.339577 36.756421 5.089505 53.794762 5.349479 9.65906 1.849819 21.827875-7.80924 27.187353-3.069701 1.699834-6.389378 2.509756-9.669059 2.509756z"/><path d="m609.729535 148.32574c-3.279681 0-6.599358-.809921-9.669059-2.509756-9.659059-5.349479-13.158719-17.518294-7.809239-27.187353 9.429081-17.038341 11.2889-36.6464313 5.089504-53.7947615-4.1096-11.378892-11.468883-20.3280206-19.198131-23.3377276-7.69925-2.9997079-19.128137-1.4198617-29.827095 4.1395969-16.148428 8.3791842-28.067267 23.9976634-32.726814 42.8658262-2.649742 10.7189562-13.478687 17.268319-24.207643 14.628576-10.718956-2.649742-17.268318-13.478688-14.628575-24.2076433 7.409278-30.0370753 26.777392-55.1046344 53.134826-68.7833025 21.237932-11.0189271 44.115704-13.16871778 62.773888-5.89942559 18.718177 7.29928929 34.126677 24.42762149 42.285882 47.01542209 10.119015 28.0072729 7.309288 59.6241943-7.719248 86.7615523-3.649645 6.589358-10.47898 10.308996-17.508295 10.318995z"/><path d="m548.315515 379.433237c-7.639257 0-14.928547-4.399572-18.258223-11.81885-4.51956-10.079018-.009999-21.907866 10.06902-26.427426l117.618547-52.724866c10.079019-4.51956 21.907867-.009999 26.427427 10.069019 4.51956 10.079019.009999 21.907867-10.069019 26.427427l-117.618548 52.724866c-2.659741 1.189884-5.43947 1.74983-8.169204 1.74983z"/><path d="m578.622564 421.619129c-4.899523 0-9.799046-1.789826-13.65867-5.399474-8.059216-7.549265-8.479175-20.198034-.939909-28.267248l88.071424-94.110836c7.549265-8.069214 20.198034-8.479175 28.267248-.939909 8.059215 7.549265 8.479174 20.198034.939909 28.267248l-88.071425 94.120835c-3.939616 4.20959-9.269097 6.329384-14.608577 6.329384z"/><path d="m626.267924 448.866476c-2.129792 0-4.299581-.339967-6.429374-1.069896-10.458981-3.549654-16.058436-14.908548-12.508782-25.36753l41.445965-122.058115c3.549654-10.458982 14.908548-16.058436 25.36753-12.508782 10.458981 3.549654 16.058436 14.908548 12.508782 25.36753l-41.445965 122.058115c-2.829724 8.329189-10.598968 13.578678-18.938156 13.578678z"/></g></g></svg>