<?xml version="1.0" encoding="UTF-8"?>
<svg width="180px" height="180px" viewBox="0 0 1027 1027" version="1.1" xmlns="http://www.w3.org/2000/svg" xmlns:xlink="http://www.w3.org/1999/xlink">
    <title>Artboard</title>
    <g id="Artboard" stroke="none" stroke-width="1" fill="none" fill-rule="evenodd">
        <g id="NBC-icons_Mouse-FINAL" transform="translate(103.586392, 267.843920)" fill-rule="nonzero">
            <path d="M724.312995,387.722247 C721.063312,387.722247 717.803629,387.682251 714.563944,387.622257 C708.494535,387.622257 582.476806,387.612258 455.80914,386.882329 C191.514874,385.362477 182.255776,382.402765 176.716315,380.632937 C174.886493,380.052994 172.956681,379.443053 170.946877,378.803116 C142.299666,369.753997 94.3643338,354.615471 58.6878077,323.628488 C23.1012728,292.731496 1.75335142,250.165641 0.103512069,206.869857 C-1.58632339,162.414186 17.4418238,118.758436 55.1281543,80.6321488 C81.3556005,54.1047318 121.041736,31.1569662 173.086669,12.4387888 C183.475657,8.69915295 194.934541,14.0986272 198.674177,24.4876156 C202.413813,34.876604 197.014339,46.3354883 186.62535,50.0751241 C140.239867,66.7535001 105.573242,86.5015773 83.5753843,108.749411 C53.4283198,139.25644 38.7897452,171.753276 40.0696205,205.350005 C41.2995008,237.64686 57.6479089,269.753734 84.9152539,293.431428 C114.32239,318.968942 155.648367,332.02767 182.995704,340.666829 C184.715536,341.206776 186.375375,341.736725 187.96522,342.236676 C191.404885,342.746626 199.36411,343.216581 211.042973,343.646539 C211.142963,319.868854 213.972687,292.911479 218.472249,274.553266 C232.050927,219.198656 263.787837,176.602804 312.813063,147.935595 C357.028758,122.088112 414.753137,107.209561 488.985909,102.60001 C496.055221,86.6515627 507.704087,73.1628761 522.742622,63.7237952 C547.660196,47.005423 579.437102,42.835829 607.834337,52.5548827 L608.754247,52.8948496 C643.760839,66.8334924 667.798498,100.140249 669.998284,137.746587 L670.028281,138.916474 L670.028281,146.715714 C670.008283,147.525635 670.018282,148.345555 670.03828,149.155477 C670.098274,149.185474 670.158268,149.215471 670.218262,149.235469 C675.547743,151.535245 680.707241,154.324973 685.556769,157.514663 L685.866739,157.724642 C696.305722,164.873946 706.414738,172.443209 715.883816,180.212453 C746.910795,205.639977 775.498011,234.307185 800.845543,265.404157 C814.02426,281.29261 820.763604,301.390653 819.833694,322.008646 C819.303746,332.497624 816.873982,342.566644 812.604398,352.05572 C809.664684,358.655077 803.495285,372.49373 790.206579,380.052994 C785.926996,382.562749 781.247451,384.152595 776.317931,384.762535 L776.117951,384.782533 C758.989619,386.732343 741.611311,387.712248 724.312995,387.712248 L724.312995,387.722247 Z M714.773924,347.626151 L715.213881,347.626151 C733.652086,348.036111 752.290271,347.206192 770.618486,345.166391 C771.418408,344.546451 773.088246,342.466654 776.097953,335.707312 C778.347734,330.727797 779.597612,325.498306 779.867586,320.11883 C780.347539,309.529861 776.84788,299.120874 770.008546,290.901675 L769.878558,290.74169 C746.200864,261.68452 719.503463,234.907127 690.516286,211.14944 C681.967118,204.140123 672.848006,197.310788 663.408925,190.831419 C660.499209,188.931604 657.399511,187.261766 654.199822,185.8919 L653.719869,185.68192 C644.740743,181.542323 633.551833,176.402823 630.862094,159.80444 L630.772103,159.174501 C630.212158,154.87492 629.962182,150.495346 630.042174,146.165768 L630.042174,139.546412 C628.562318,117.748535 614.643674,98.4904099 594.415643,90.2412131 C577.827259,84.7217506 559.32906,87.2615033 544.84047,97.0705481 L544.180535,97.4905073 C533.481577,104.13986 525.892315,114.528848 522.812615,126.747658 L519.17297,141.176254 L504.304418,141.836189 C431.191537,145.085873 373.547149,158.754542 332.991098,182.462233 C293.114981,205.779963 268.357392,239.016727 257.298469,284.082339 C253.538835,299.410846 251.059076,324.01845 251.01908,344.706436 C354.918963,346.806231 561.938806,347.626151 711.414251,347.626151 L714.763925,347.626151 L714.773924,347.626151 Z" id="Shape" fill="#E6107C"></path>
            <circle id="Oval" fill="#2A256A" cx="179.84601" cy="31.2569565" r="19.9980528"></circle>
            <circle id="Oval" fill="#3A99D4" cx="225.911525" cy="19.9980528" r="19.9980528"></circle>
            <circle id="Oval" fill="#2A256A" cx="653.479892" cy="242.386399" r="19.9980528"></circle>
            <path d="M661.379123,333.837494 C657.369513,333.837494 653.799861,330.987771 653.039935,326.89817 C652.17002,322.288618 655.209724,317.839052 659.829274,316.979135 L731.482297,303.540444 C736.101847,302.670529 740.541415,305.710233 741.401331,310.329783 C742.271246,314.939334 739.231542,319.388901 734.611992,320.248817 L662.958969,333.687509 C662.429021,333.787499 661.899072,333.837494 661.379123,333.837494 L661.379123,333.837494 Z" id="Path" fill="#2A256A"></path>
            <path d="M647.96043,386.082407 C645.420677,386.082407 642.900922,384.942518 641.231085,382.772729 C638.361364,379.053091 639.051297,373.72361 642.760936,370.85389 L727.85265,305.170285 C731.572288,302.300565 736.901769,302.990498 739.77149,306.700136 C742.64121,310.419774 741.951278,315.749255 738.241639,318.618976 L653.149924,384.30258 C651.600075,385.492464 649.780252,386.072408 647.96043,386.072408 L647.96043,386.082407 Z" id="Path" fill="#2A256A"></path>
            <path d="M670.338251,439.827174 C669.00838,439.827174 667.658512,439.517204 666.398634,438.847269 C662.239039,436.667481 660.639195,431.527982 662.828982,427.368387 L725.522877,307.940016 C727.702665,303.780421 732.842165,302.190575 737.00176,304.360364 C741.161355,306.540152 742.761199,311.679651 740.571412,315.839246 L677.877517,435.267618 C676.357665,438.167335 673.397953,439.817175 670.34825,439.817175 L670.338251,439.827174 Z" id="Path" fill="#2A256A"></path>
        </g>
    </g>
</svg>