<svg height="180" viewBox="0 0 1027 1027" width="180" xmlns="http://www.w3.org/2000/svg"><g fill="none" transform="translate(164.443988 268.813825)"><circle cx="342.246675" cy="245.236121" fill="#FF0087" r="19.998053"/><circle cx="578.363684" cy="363.304625" fill="#2a256a" r="19.998053"/><circle cx="522.449129" cy="310.479768" fill="#3a99d4" r="39.996106"/><circle cx="143.406036" cy="332.227651" fill="#3a99d4" r="39.996106"/><circle cx="199.330591" cy="372.623717" fill="#2a256a" r="19.998053"/><circle cx="411.949888" cy="223.488239" fill="#2a256a" r="19.998053"/><path d="m706.68119 148.60553c-7.1893-40.986009-45.135605-77.9024144-108.689417-105.1097652-65.513621-28.047269-152.175183-43.4957648-244.026239-43.4957648s-178.512618 15.4484958-244.026239 43.4957648c-70.903096 30.3570441-109.939295 72.7929122-109.939295 119.4883652v155.264882c0 46.695453 39.046198 89.131321 109.939295 119.488365 65.513621 28.047269 152.175183 43.495765 244.026239 43.495765s178.512618-15.448496 244.026239-43.495765c70.903096-30.357044 109.939295-72.792912 109.939295-119.488365 0-3.226353-.419959-58.177963-1.259877-164.85483zm-580.983429-68.3433452c60.644095-25.9674715 141.716201-40.2660793 228.277772-40.2660793s167.633677 14.2986078 228.277772 40.2660793c54.454698 23.3177292 85.691657 53.4647942 85.691657 82.7219452 0 18.158232-12.038828 36.656431-34.186672 53.654776-10.818946-6.339383-22.747785-12.308802-35.756518-17.87826-65.513621-28.047269-152.175183-43.495764-244.026239-43.495764s-178.512618 15.448495-244.026239 43.495764c-13.0087332 5.569458-24.9375717 11.548876-35.7565182 17.87826-22.1478435-16.998345-34.1866712-35.496544-34.1866712-53.654776 0-29.257151 31.2369584-59.404216 85.6916564-82.7219452zm467.824447 160.3543862c-3.639645 1.729831-7.38928 3.429666-11.268903 5.089504-60.644095 25.967472-141.716201 40.26608-228.277772 40.26608s-167.633677-14.298608-228.277772-40.26608c-3.879623-1.659838-7.629257-3.359673-11.268903-5.089504 3.639646-1.729832 7.38928-3.429666 11.268903-5.089505 60.644095-25.967471 141.716201-40.266079 228.277772-40.266079s167.633677 14.298608 228.277772 40.266079c3.879623 1.659839 7.629258 3.359673 11.268903 5.089505zm-553.0361502 0c-.1599844.139986-.3199688.279973-.4799532.419959v-.829919c.1599844.139986.3199688.279973.4799532.419959zm541.7672472 160.354386c-60.644095 25.967472-141.716201 40.266079-228.277772 40.266079s-167.633677-14.298607-228.277772-40.266079c-54.454698-23.317729-85.6916564-53.464794-85.6916564-82.721945 0-18.158232 12.0388277-36.656431 34.1866712-53.654776 10.8189465 6.339383 22.747785 12.308802 35.7565182 17.878259 65.513621 28.047269 152.175183 43.495765 244.026239 43.495765s178.512618-15.448496 244.026239-43.495765c13.008733-5.569457 24.937572-11.548875 35.756518-17.878259 22.147844 16.998345 34.186672 35.496544 34.186672 53.654776 0 29.257151-31.236959 59.404216-85.691657 82.721945z" fill="#FF0087"/></g></svg>