<svg height="180" viewBox="0 0 1027 1027" width="180" xmlns="http://www.w3.org/2000/svg"><g fill="none" transform="translate(200.021806 182.55)"><g fill="#FF0087"><path d="m158.988194 438.14-118.0500002-120.07 323.5100002-318.07 118.05 120.07zm-61.4900002-119.59 61.9700002 63.03 266.47-261.99-61.97-63.03z"/><path d="m110.008194 470.58c-5.18 0-10.3500002-2-14.2600002-5.98l-90.00999999-91.55c-7.74-7.88-7.64-20.54.24-28.28 7.87999999-7.74 20.53999999-7.64 28.27999999.24l90.0100002 91.55c7.74 7.88 7.64 20.54-.24 28.28-3.89 3.83-8.96 5.74-14.02 5.74z"/><path d="m438.228194 534.95c-4.15 0-8.33-1.28-11.91-3.95-8.87-6.59-10.71-19.11-4.13-27.98 43.16-58.1 57.83-110.01 43.61-154.28-24.17-75.23-124.4-108.12-125.41-108.44-10.51-3.37-16.32-14.61-12.97-25.12s14.57-16.33 25.09-13c4.91 1.56 120.66 39.24 151.3 134.11 18.51 57.31 1.85 121.43-49.51 190.58-3.92 5.28-9.96 8.07-16.07 8.07z"/></g><circle cx="346.468194" cy="221.25" fill="#3a99d4" r="40"/><circle cx="411.648194" cy="555.21" fill="#FF0087" r="20"/><circle cx="438.118194" cy="515.06" fill="#2a256a" r="20"/></g></svg>