<svg height="180" viewBox="0 0 1027 1027" width="180" xmlns="http://www.w3.org/2000/svg"><g fill="none" transform="translate(340.796816 261.052553)"><g fill="#FF0087"><path d="m195.770938 515.511832c-10.978931 0-19.918061-8.869136-19.998053-19.868065l-1.939811-294.7513 87.821448-189.3015677c4.649548-10.01902446 16.53839-14.37859996 26.557415-9.72905269 10.019024 4.64954727 14.3686 16.53838959 9.729052 26.55741409l-84.051816 181.1723593 1.879817 285.782173c.069994 11.048924-8.819141 20.058047-19.868065 20.12804-.039996 0-.089991 0-.129987 0z"/><path d="m141.906182 515.511832s-.089991 0-.129987 0c-11.048924-.069993-19.938058-9.089115-19.868065-20.12804l1.879817-285.782173-84.0518161-181.1723593c-4.6495473-10.0190244-.2899718-21.9078668 9.7290526-26.55741407 10.0190245-4.64954727 21.9078668-.28997176 26.5574141 9.72905267l87.8214484 189.3015677-1.939811 294.7513c-.069993 10.998929-9.009123 19.868065-19.998053 19.868065z"/><path d="m241.826453 238.75878c-2.879719 0-5.799435-.61994-8.569165-1.939811-9.979029-4.739539-14.218616-16.668377-9.479078-26.647406l55.384608-116.4886571c4.739538-9.9790283 16.668377-14.2186155 26.647405-9.479077s14.218615 16.6683771 9.479077 26.6474051l-55.384607 116.488658c-3.419667 7.199299-10.598968 11.418888-18.07824 11.418888z"/><path d="m95.9806543 238.75878c-7.4792718 0-14.6485737-4.20959-18.0782397-11.418888l-55.3846072-116.488658c-4.7395385-9.979028-.4999513-21.9078666 9.479077-26.6474051 9.9790284-4.7395385 21.9078668-.4999513 26.6474053 9.479077l55.3846073 116.4886571c4.739538 9.979029.499951 21.907867-9.479077 26.647406-2.76973 1.319871-5.6994452 1.939811-8.5691657 1.939811z"/></g><circle cx="315.619268" cy="60.716116" fill="#3a99d4" r="19.998053"/><circle cx="297.221059" cy="102.27207" fill="#2a256a" r="19.998053"/><circle cx="40.586048" cy="102.27207" fill="#2a256a" r="19.998053"/><circle cx="19.998053" cy="61.586031" fill="#3a99d4" r="19.998053"/></g></svg>