<svg height="65" viewBox="0 0 65 65" width="65" xmlns="http://www.w3.org/2000/svg"><path d="m32 0c-17.673112 0-32 14.326888-32 32s14.326888 32 32 32 32-14.326888 32-32c0-8.4869277-3.3714189-16.6262529-9.372583-22.627417-6.0011641-6.00116411-14.1404893-9.372583-22.627417-9.372583zm9.059332 20.1178782h-3.3445972c-2.621611 0-3.1434185 1.2573674-3.1434185 3.0742633v4.0361493h6.2868369l-.8110019 6.2868369h-5.4632613v16.2200393h-6.5257368v-16.1760314h-5.4884086v-6.286837h5.4632613v-4.702554c0-5.4129666 3.3005894-8.3614931 8.1288802-8.3614931 1.6275426-.0081384 3.254242.0758203 4.8722986.2514735z" fill="#fff" transform="translate(.1 .1)"/></svg>