<svg height="65" viewBox="0 0 65 65" width="65" xmlns="http://www.w3.org/2000/svg"><g fill="#fff" transform="translate(.1 .1)"><path d="m45.8939096 27.7878193c0-1.3202358 0-2.4518665-.2514735-3.7721022-.2514734-2.6404715-2.0117878-4.6522593-4.6522593-5.0923379-1.5717092-.2514735-2.891945-.2514735-4.4007858-.2514735-2.6404716 0-5.5324165 0-8.1728881 0-1.3202357 0-2.6404715 0-4.2121807.2514735-2.4518664.4400786-3.9607073 1.7603143-4.6522593 3.9607072-.2514735.6915521-.4400786 1.5717093-.4400786 2.200393 0 2.891945-.2514735 5.9724951 0 8.8015717 0 1.7603143 0 3.7721021.2514735 5.5324165.2514734 2.891945 2.0117878 4.6522593 4.6522593 5.280943 1.3202357.2514735 2.891945.2514735 4.4007858.2514735h8.1728881c1.3202357 0 2.4518664 0 3.7721021-.2514735 1.1316307-.2514735 2.200393-.4400786 3.0805501-1.3202357 1.5717093-1.1316307 2.0117878-2.891945 2.2003929-4.6522594.2514735-2.4518664.2514735-4.8408644.2514735-7.4813359 0-.8172888 0-2.1375246 0-3.4577603m-13.453831 12.5736738c-4.6522593 0-8.3614931-3.7721021-8.3614931-8.3614931s3.7721021-8.172888 8.3614931-8.172888c4.5893909 0 8.172888 3.7721021 8.172888 8.3614931.1886051 4.4636542-3.5206287 8.172888-8.172888 8.172888m8.8015717-14.9626719c-1.1316307 0-2.0117878-.8801572-2.0117878-2.0117878s.8801571-2.0117878 2.0117878-2.0117878c1.1316306 0 2.0117878.8801572 2.0117878 2.0117878-.1886051 1.1316306-1.1316306 2.0117878-2.0117878 2.0117878"/><path d="m32.4400786 26.719057c-2.891945 0-5.5324165 2.4518664-5.5324165 5.5324165 0 2.891945 2.4518664 5.5324165 5.5324165 5.5324165 2.891945 0 5.5324165-2.4518664 5.5324165-5.280943 0-3.394892-2.4518664-5.78389-5.5324165-5.78389"/><path d="m32 0c-17.6660118 0-32 14.3339882-32 32s14.3339882 32 32 32 32-14.3339882 32-32-14.3339882-32-32-32m16.7858546 37.0923379c0 1.7603144 0 3.3320236-.691552 5.0923379-1.1316307 3.0805501-3.3320236 5.092338-6.6011788 5.7210216-1.5717093.2514735-3.0805501.4400786-4.4007859.4400786-3.3320236 0-6.4125737 0-9.6817289 0-1.7603143 0-3.3320235 0-5.0923379-.691552-3.0805501-1.1316307-5.0923379-3.3320236-5.7210216-6.6011788-.2514735-1.5717092-.4400786-3.0805501-.4400786-4.4007859 0-3.3320235 0-6.4125736 0-9.6817288 0-1.7603144.2514735-3.3320236.6915521-5.092338 1.1316306-3.0805501 3.3320236-5.0923379 6.6011788-5.7210216 1.5717092-.2514735 3.0805501-.2514735 4.6522593-.4400786h4.8408644c2.200393 0 3.9607073 0 6.1611002.2514735 2.0117879 0 3.5206287.4400786 5.092338 1.3202358 2.2003929 1.3202357 3.5206286 3.3320235 3.9607072 5.7210216.2514735 1.5717092.4400786 3.0805501.4400786 4.4007858.1886051 3.2691552.1886051 6.6011788.1886051 9.6817289"/></g></svg>