<svg clip-rule="evenodd" fill-rule="evenodd" stroke-linejoin="round" stroke-miterlimit="2" viewBox="0 0 512 512" xmlns="http://www.w3.org/2000/svg"><path d="m256 0c141.29 0 256 114.71 256 256s-114.71 256-256 256-256-114.71-256-256 114.71-256 256-256zm-80.037 399.871v-199.921h-66.464v199.921zm239.62 0v-114.646c0-61.409-32.787-89.976-76.509-89.976-35.255 0-51.047 19.389-59.889 33.007v-28.306h-66.447c.881 18.757 0 199.921 0 199.921h66.446v-111.65c0-5.976.43-11.95 2.191-16.221 4.795-11.935 15.737-24.299 34.095-24.299 24.034 0 33.663 18.34 33.663 45.204v106.966zm-272.403-296.321c-22.74 0-37.597 14.95-37.597 34.545 0 19.182 14.405 34.544 36.717 34.544h.429c23.175 0 37.6-15.362 37.6-34.544-.43-19.595-14.424-34.545-37.149-34.545z"/></svg>