<?xml version="1.0" encoding="UTF-8"?>
<svg width="18px" height="18px" viewBox="0 0 18 18" version="1.1" xmlns="http://www.w3.org/2000/svg" xmlns:xlink="http://www.w3.org/1999/xlink">
    <title>magnifying-glass-solid</title>
    <g id="Page-1" stroke="none" stroke-width="1" fill="none" fill-rule="evenodd">
        <g id="magnifying-glass-solid" fill="#233E70" fill-rule="nonzero">
            <path d="M14.622858,7.31142899 C14.622858,8.92486452 14.0991066,10.4152712 13.2168139,11.6244691 L17.6669433,16.0781136 C18.1063321,16.5175023 18.1063321,17.2310697 17.6669433,17.6704584 C17.2275546,18.1098472 16.5139872,18.1098472 16.0745984,17.6704584 L11.6244691,13.2168139 C10.4152712,14.1026217 8.92486452,14.622858 7.31142899,14.622858 C3.27256749,14.622858 0,11.3502905 0,7.31142899 C0,3.27256749 3.27256749,0 7.31142899,0 C11.3502905,0 14.622858,3.27256749 14.622858,7.31142899 Z M7.31142899,12.3731875 C9.11982116,12.3731875 10.7908444,11.4084218 11.6950405,9.84230828 C12.5992366,8.27619473 12.5992366,6.34666325 11.6950405,4.7805497 C10.7908444,3.21443615 9.11982116,2.24967046 7.31142899,2.24967046 C4.51589695,2.24967046 2.24967046,4.51589695 2.24967046,7.31142899 C2.24967046,10.106961 4.51589695,12.3731875 7.31142899,12.3731875 L7.31142899,12.3731875 Z" id="Shape"></path>
        </g>
    </g>
</svg>