<?xml version="1.0" encoding="UTF-8"?>
<svg width="64px" height="64px" viewBox="0 0 64 64" version="1.1" xmlns="http://www.w3.org/2000/svg" xmlns:xlink="http://www.w3.org/1999/xlink">
    <title>twitter</title>
    <g id="Page-1" stroke="none" stroke-width="1" fill="none" fill-rule="evenodd">
        <g id="twitter" fill="#FFFFFF" fill-rule="nonzero">
            <path d="M32,0 C49.66125,0 64,14.33875 64,32 C64,49.66125 49.66125,64 32,64 C14.33875,64 0,49.66125 0,32 C0,14.33875 14.33875,0 32,0 Z M24.8342884,14 L14.375,14 L28.0881512,33.9453089 L14.375,49.875 L17.473786,49.875 L29.4638511,35.9461261 L39.0407116,49.875 L49.5,49.875 L35.2783851,29.1906141 L35.2791461,29.1906141 L48.3552178,14 L45.2566073,14 L33.902656,27.1897969 L24.8342884,14 Z M23.3769249,16.25 L32.2842855,29.0270722 L33.6714863,31.0167631 L45.25,47.625 L40.4980751,47.625 L31.049663,34.07263 L31.049663,34.071868 L29.6624623,32.0821771 L18.625,16.25 L23.3769249,16.25 Z" id="Shape"></path>
        </g>
    </g>
</svg>