<svg height="65" viewBox="0 0 65 65" width="65" xmlns="http://www.w3.org/2000/svg"><g fill="#fff" transform="translate(.1 .1)"><path d="m32 0c-17.673112 0-32 14.326888-32 32s14.326888 32 32 32 32-14.326888 32-32c0-8.4869277-3.3714189-16.6262529-9.372583-22.627417-6.0011641-6.00116411-14.1404893-9.372583-22.627417-9.372583zm19.8978389 40.3489194c-.0895199.8551966-.3188992 1.6898826-.6789784 2.470727-.7452687 1.545045-2.2411029 2.5906999-3.9481336 2.7599214-1.9677799.2200393-3.9418467.3897839-5.9222004.4840864-2.9170923.1320236-5.8341847.1697446-9.0907662.2577603-3.1434185-.0817288-6.5886051-.1383104-10.0589391-.2766208-1.7540275-.075442-3.5269155-.2137524-5.2872298-.4652259-2.4296461-.2261062-4.3751416-2.1114586-4.6774067-4.5328095-.4727649-3.0612039-.6830911-6.1572067-.6286837-9.2542239-.0211639-2.3294796.1027168-4.6580174.3709234-6.9721022.0733619-1.0092826.2524704-2.008076.5343811-2.9799607.5938231-1.8853549 2.2369461-3.2480647 4.1996071-3.4829076 2.291934-.3198065 4.601602-.4961812 6.9155206-.5280944 2.7222004-.0817288 5.4444008-.1445972 8.172888-.150884 2.5147348 0 4.9666012.0565815 7.4561886.1320235 1.6911592.0440079 3.3886051.1320236 5.0797643.2640472 1.1406597.062003 2.2752906.2069836 3.3948919.4337917 1.9986015.3575069 3.5565414 1.9330648 3.8915521 3.93556.301098 1.3766551.4965589 2.774306.5846758 4.1807465.1320236 2.313556.1886051 4.6333988.1823183 6.9155206.0114187 2.2787663-.152523 4.5550333-.4903733 6.8086444z"/><path d="m27.9324165 38.0982318 10.6310413-6.0982318-10.6310413-6.1485265z"/></g></svg>